<svg xmlns="http://www.w3.org/2000/svg" version="1.1" xmlns:xlink="http://www.w3.org/1999/xlink" xmlns:svgjs="http://svgjs.dev/svgjs" width="1500" height="1398" viewBox="0 0 1500 1398"><g transform="matrix(1,0,0,1,-2.5547341196170237,-2.254838709677415)"><svg viewBox="0 0 266 248" data-background-color="#444444" preserveAspectRatio="xMidYMid meet" height="1398" width="1500" xmlns="http://www.w3.org/2000/svg" xmlns:xlink="http://www.w3.org/1999/xlink"><g id="tight-bounds" transform="matrix(1,0,0,1,0.45303951721209046,0.4000000000000057)"><svg viewBox="0 0 265.0939209655758 247.2" height="247.2" width="265.0939209655758"><g><svg viewBox="0 0 395.52 368.8222786998439" height="247.2" width="265.0939209655758"><g transform="matrix(1,0,0,1,0,256.34505636787185)"><svg viewBox="0 0 395.52 112.47722233197203" height="112.47722233197203" width="395.52"><g id="textblocktransform"><svg viewBox="0 0 395.52 112.47722233197203" height="112.47722233197203" width="395.52" id="textblock"><g><svg viewBox="0 0 395.52 60.66483916083916" height="60.66483916083916" width="395.52"><g transform="matrix(1,0,0,1,0,0)"><svg width="395.52" viewBox="1.4 -38.7 321.72 49.35" height="60.66483916083916" data-palette-color="#ffffff"><path d="M1.95-24.2L4.85-24.2 4.85-29.65 11.6-30.95 10.95-24.2 17-24.2 16.45-20.1 10.75-20.1 10.5-9.65Q10.5-7.3 10.95-6.53 11.4-5.75 12.6-5.75 13.8-5.75 15.8-6.3L15.8-6.3 16.1-2.75Q12.8 0 10.3 0 7.8 0 6.2-1.83 4.6-3.65 4.6-6.6L4.6-6.6 4.9-12.2 4.85-20.1 1.4-20.1 1.95-24.2ZM25.65 0Q22.7 0 20.82-1.88 18.95-3.75 18.95-6.93 18.95-10.1 21.85-12.43 24.75-14.75 28.9-14.75L28.9-14.75 32.3-14.75 32.3-15.6Q32.3-18.05 31.3-18.95 30.3-19.85 27.55-19.85L27.55-19.85Q26.4-19.85 24.82-19.38 23.25-18.9 21.3-17.9L21.3-17.9 19.85-21.85Q22-23.35 25.07-24.55 28.15-25.75 30.15-25.75L30.15-25.75Q38-25.75 38-18.15L38-18.15 38-8.35Q38-5.55 39.75-2.1L39.75-2.1 34.45 0.15Q33.2-2.25 32.6-4.15L32.6-4.15Q29.85 0 25.65 0L25.65 0ZM27.75-5.1L27.75-5.1Q29.75-5.1 32.3-7.15L32.3-7.15 32.3-10.5Q29.65-11.1 28-11.1L28-11.1Q24.85-11.1 24.85-8.3L24.85-8.3Q24.85-6.85 25.65-5.98 26.45-5.1 27.75-5.1ZM43.55-24.15L43.55-24.15 49.6-25.45Q50.05-21.6 50.2-18.15L50.2-18.15Q54.75-25.2 58.75-25.2L58.75-25.2 58.2-17.4Q55.3-17.4 53.62-16.88 51.95-16.35 50.2-14.8L50.2-14.8 50.2-13 50.75-1.25 44.05 0 44.65-12.15Q44.45-18.85 43.55-24.15ZM70.89-5.1L70.89-5.1Q72.34-5.1 73.94-5.85 75.54-6.6 76.44-7.35L76.44-7.35 77.34-8.1 79.64-5.3Q79.14-4.45 78.09-3.35 77.04-2.25 75.97-1.48 74.89-0.7 73.12-0.08 71.34 0.55 69.44 0.55L69.44 0.55Q65.39 0.55 62.84-2.53 60.29-5.6 60.29-10.45L60.29-10.45Q60.29-16.55 63.84-21.15 67.39-25.75 72.14-25.75L72.14-25.75Q75.79-25.75 77.82-23.7 79.84-21.65 79.84-17.95L79.84-17.95Q79.84-15.75 79.09-12.95L79.09-12.95 78.09-11.9 65.59-10.75Q66.44-5.1 70.89-5.1ZM70.89-20.6L70.89-20.6Q68.69-20.6 67.19-18.82 65.69-17.05 65.44-14.3L65.44-14.3 73.94-15.35Q74.09-16.5 74.09-17.25L74.09-17.25Q74.09-20.6 70.89-20.6ZM105.49-3.3L99.79 0.5 90.39-13.35 90.39-13 90.94-1.25 84.19 0 84.79-12.15 84.19-37.45 91.04-38.7 90.39-14.55 100.39-25.5 105.09-22.3 96.34-14.1 105.49-3.3ZM115.84-4.65L115.84-4.65Q118.44-4.65 118.44-6.95L118.44-6.95Q118.44-7.75 117.31-8.45 116.19-9.15 114.56-9.85 112.94-10.55 111.31-11.43 109.69-12.3 108.56-13.85 107.44-15.4 107.44-17.4L107.44-17.4Q107.44-20.75 110.39-23.25 113.34-25.75 117.19-25.75L117.19-25.75Q118.99-25.75 120.71-25.33 122.44-24.9 124.04-24L124.04-24 120.69-17.9Q120.34-18.2 119.79-18.65 119.24-19.1 117.71-19.83 116.19-20.55 115.01-20.55 113.84-20.55 113.21-20.03 112.59-19.5 112.59-18.57 112.59-17.65 114.31-16.73 116.04-15.8 118.09-15.03 120.14-14.25 121.86-12.48 123.59-10.7 123.59-8.25L123.59-8.25Q123.59-4.75 120.71-2.1 117.84 0.55 114.09 0.55L114.09 0.55Q111.69 0.55 109.61-0.5 107.54-1.55 106.64-2.6L106.64-2.6 105.74-3.65 109.69-8.25Q109.99-7.85 110.54-7.25 111.09-6.65 112.71-5.65 114.34-4.65 115.84-4.65ZM127.99-24.2L134.69-25.45 134.09-13 134.64-1.25 127.94 0 128.54-12.15 127.99-24.2ZM127.64-32.77Q127.64-34.45 128.94-35.77 130.24-37.1 131.94-37.1 133.64-37.1 134.54-36.18 135.44-35.25 135.44-33.4 135.44-31.55 134.16-30.23 132.89-28.9 131.21-28.9 129.54-28.9 128.59-30 127.64-31.1 127.64-32.77ZM154.68-12.65Q154.68-16.1 154.08-17.25 153.48-18.4 151.28-18.4 149.08-18.4 146.28-16.65L146.28-16.65 146.28-13 146.83-1.25 140.13 0 140.73-12.15Q140.53-18.85 139.63-24.15L139.63-24.15 145.68-25.45Q146.03-22.55 146.18-19.8L146.18-19.8Q146.93-20.8 147.88-21.78 148.83-22.75 150.88-23.98 152.93-25.2 155.03-25.2 157.13-25.2 158.58-23.85 160.03-22.5 160.43-20.15L160.43-20.15Q164.58-25.2 168.83-25.2L168.83-25.2Q171.48-25.2 173.03-23.43 174.58-21.65 174.58-18.6L174.58-18.6 174.28-13 174.83-1 168.08 0.25 168.68-12.65Q168.68-16.1 168.08-17.25 167.48-18.4 165.33-18.4 163.18-18.4 160.48-16.75L160.48-16.75 160.28-13 160.83-1 154.08 0.25 154.68-12.65ZM193.68-25.25L193.68-25.25Q196.88-25.25 199.06-22.45 201.23-19.65 201.23-14.9L201.23-14.9Q201.23-8.25 197.81-4.13 194.38 0 189.28 0L189.28 0Q188.23 0 186.93-0.15L186.93-0.15 187.18 9.4 180.33 10.65 180.98-12.15 181.03-12.15Q180.83-18.85 179.93-24.15L179.93-24.15 185.98-25.45Q186.28-22.8 186.48-20.2L186.48-20.2Q186.58-20.45 187.51-21.58 188.43-22.7 190.23-23.98 192.03-25.25 193.68-25.25ZM191.73-18.75L191.73-18.75Q189.08-18.75 186.58-17.3L186.58-17.3 186.58-13 186.78-5.85Q189.48-5.4 190.88-5.4L190.88-5.4Q195.68-5.4 195.68-12.08 195.68-18.75 191.73-18.75ZM205.38-37.45L212.23-38.7 211.58-13 212.13-1.25 205.38 0 205.98-12.15 205.38-37.45ZM227.03-5.1L227.03-5.1Q228.48-5.1 230.08-5.85 231.68-6.6 232.58-7.35L232.58-7.35 233.48-8.1 235.78-5.3Q235.28-4.45 234.23-3.35 233.18-2.25 232.1-1.48 231.03-0.7 229.25-0.08 227.48 0.55 225.58 0.55L225.58 0.55Q221.53 0.55 218.98-2.53 216.43-5.6 216.43-10.45L216.43-10.45Q216.43-16.55 219.98-21.15 223.53-25.75 228.28-25.75L228.28-25.75Q231.93-25.75 233.95-23.7 235.98-21.65 235.98-17.95L235.98-17.95Q235.98-15.75 235.23-12.95L235.23-12.95 234.23-11.9 221.73-10.75Q222.58-5.1 227.03-5.1ZM227.03-20.6L227.03-20.6Q224.83-20.6 223.33-18.82 221.83-17.05 221.58-14.3L221.58-14.3 230.08-15.35Q230.23-16.5 230.23-17.25L230.23-17.25Q230.23-20.6 227.03-20.6ZM248.92-19.25Q246.72-19.25 245.52-17.68 244.32-16.1 244.32-12.85 244.32-9.6 245.55-7.63 246.77-5.65 249.12-5.65L249.12-5.65Q250.32-5.65 251.47-6.4 252.62-7.15 253.22-7.9L253.22-7.9 253.77-8.7 256.27-6.1Q256.12-5.85 255.9-5.4 255.67-4.95 254.8-3.8 253.92-2.65 252.95-1.78 251.97-0.9 250.42-0.18 248.87 0.55 247.17 0.55L247.17 0.55Q243.42 0.55 241.07-2.5 238.72-5.55 238.72-10.45L238.72-10.45Q238.72-16.55 242.27-21.15 245.82-25.75 250.57-25.75L250.57-25.75Q252.02-25.75 253.47-25.33 254.92-24.9 256.42-24L256.42-24 252.92-17.85Q251.12-19.25 248.92-19.25ZM259.02-24.15L259.02-24.15 265.07-25.45Q265.52-21.6 265.67-18.15L265.67-18.15Q270.22-25.2 274.22-25.2L274.22-25.2 273.67-17.4Q270.77-17.4 269.1-16.88 267.42-16.35 265.67-14.8L265.67-14.8 265.67-13 266.22-1.25 259.52 0 260.12-12.15Q259.92-18.85 259.02-24.15ZM283.37 0L283.37 0Q280.67 0 278.99-1.78 277.32-3.55 277.32-6.45L277.32-6.45 277.62-12.2 277.07-24.2 283.77-25.45 283.12-10.25Q283.12-8.1 283.89-7.1 284.67-6.1 286.37-6.1 288.07-6.1 291.07-7.8L291.07-7.8 291.07-10.8 290.52-23.95 297.27-25.2 296.67-12.7 296.72-8.6Q296.72-5.4 298.37-2.15L298.37-2.15 293.17 0.15Q291.52-3.1 291.17-5.05L291.17-5.05Q286.67 0 283.37 0ZM316.07-4.9L316.07-4.9Q312.17 0 309.32 0L309.32 0Q305.77 0 303.49-2.9 301.22-5.8 301.22-10.35L301.22-10.35Q301.22-16.6 304.69-20.9 308.17-25.2 313.22-25.2L313.22-25.2 316.02-24.8 316.02-25.75 315.42-37.45 322.27-38.7 321.62-13 321.62-8.6Q321.62-5.6 323.12-1.7L323.12-1.7 317.72 0.55Q316.27-2.45 316.07-4.9ZM306.82-12.95Q306.82-9.75 307.99-7.95 309.17-6.15 311.39-6.15 313.62-6.15 316.02-7.95L316.02-7.95 316.02-18.75Q313.02-19.35 311.57-19.35L311.57-19.35Q309.32-19.35 308.07-17.75 306.82-16.15 306.82-12.95Z" opacity="1" transform="matrix(1,0,0,1,0,0)" fill="#ffffff" class="wordmark-text-0" data-fill-palette-color="primary" id="text-0"></path></svg></g></svg></g><g transform="matrix(1,0,0,1,170.49626606127575,74.98635173057342)"><svg viewBox="0 0 54.52746787744851 37.4908706013986" height="37.4908706013986" width="54.52746787744851"><g transform="matrix(1,0,0,1,0,0)"><svg width="54.52746787744851" viewBox="0.5 -35.6 52.65 36.2" height="37.4908706013986" data-palette-color="#00d1cd"><path d="M16 0L11.25 0 11.25-30.8 0.5-30.8 0.5-35 26.75-35 26.75-30.8 16-30.8 16 0ZM40.45 0.6L40.45 0.6Q36.8 0.6 33.8-0.38 30.8-1.35 28.75-2.95L28.75-2.95 31.15-6.95Q32.95-5.45 35.2-4.5 37.45-3.55 40.45-3.55L40.45-3.55Q44.05-3.55 46.15-5.05 48.25-6.55 48.25-9.1L48.25-9.1Q48.25-10.55 47.65-11.68 47.05-12.8 45.32-13.88 43.6-14.95 40.25-16.2L40.25-16.2Q36.65-17.6 34.5-19.03 32.35-20.45 31.42-22.28 30.5-24.1 30.5-26.6L30.5-26.6Q30.5-29.1 31.87-31.13 33.25-33.15 35.92-34.38 38.6-35.6 42.4-35.6L42.4-35.6Q45.5-35.6 47.97-34.98 50.45-34.35 52.8-33.2L52.8-33.2 51.05-29.15Q49.35-30.15 47.07-30.83 44.8-31.5 42.3-31.5L42.3-31.5Q39-31.5 37.1-30.2 35.2-28.9 35.2-26.85L35.2-26.85Q35.2-25.55 35.75-24.55 36.3-23.55 37.92-22.6 39.55-21.65 42.8-20.45L42.8-20.45Q46.7-19 48.97-17.4 51.25-15.8 52.2-13.93 53.15-12.05 53.15-9.65L53.15-9.65Q53.15-6.4 51.52-4.1 49.9-1.8 47.02-0.6 44.15 0.6 40.45 0.6Z" opacity="1" transform="matrix(1,0,0,1,0,0)" fill="#00d1cd" class="slogan-text-1" data-fill-palette-color="secondary" id="text-1"></path></svg></g></svg></g></svg></g></svg></g><g transform="matrix(1,0,0,1,83.90898438579833,0)"><svg viewBox="0 0 227.7020312284033 227.7020312284033" height="227.7020312284033" width="227.7020312284033"><g><svg></svg></g><g id="icon-0"><svg viewBox="0 0 227.7020312284033 227.7020312284033" height="227.7020312284033" width="227.7020312284033"><g><path d="M0 113.851c0-62.878 50.973-113.851 113.851-113.851 62.878 0 113.851 50.973 113.851 113.851 0 62.878-50.973 113.851-113.851 113.851-62.878 0-113.851-50.973-113.851-113.851zM113.851 222.231c59.857 0 108.38-48.523 108.38-108.38 0-59.857-48.523-108.38-108.38-108.38-59.857 0-108.38 48.523-108.38 108.38 0 59.857 48.523 108.38 108.38 108.38z" data-fill-palette-color="accent" fill="#00d1cd" stroke="transparent"></path></g><g transform="matrix(1,0,0,1,47.625565723770166,67.48110151049701)"><svg viewBox="0 0 132.45089978086298 92.73982820740929" height="92.73982820740929" width="132.45089978086298"><g><svg xmlns="http://www.w3.org/2000/svg" viewBox="43.331755801611145 75.01643989625532 310.83824419838885 217.6435601037447" x="0" y="0" height="92.73982820740929" width="132.45089978086298" class="icon-dxe-0" data-fill-palette-color="accent" id="dxe-0"><g data-name="Immersive experience " fill="#00d1cd" data-fill-palette-color="accent"><path d="M289.33 118.67H106.67A5 5 0 0 0 101.67 123.67V165A5 5 0 0 0 106.67 170H289.33A5 5 0 0 0 294.33 165V123.67A5 5 0 0 0 289.33 118.67M119.05 160H111.66V128.67H119.05ZM284.33 160H124.05V128.67H284.33Z" fill="#00d1cd" data-fill-palette-color="accent"></path><path d="M264.33 226.33V185A5 5 0 0 0 259.33 180H76.67A5 5 0 0 0 71.67 185V226.33A5 5 0 0 0 76.67 231.33H259.33A5 5 0 0 0 264.33 226.33M89.05 221.33H81.67V190H89.06ZM254.33 221.33H94.05V190H254.33Z" fill="#00d1cd" data-fill-palette-color="accent"></path><path d="M289.33 241.33H106.67A5 5 0 0 0 101.67 246.33V287.66A5 5 0 0 0 106.67 292.66H289.33A5 5 0 0 0 294.33 287.66V246.33A5 5 0 0 0 289.33 241.33M119.05 282.67H111.66V251.33H119.05ZM284.33 282.67H124.05V251.33H284.33Z" fill="#00d1cd" data-fill-palette-color="accent"></path><path d="M100.51 98.34L96.43 102.42A5 5 0 1 0 103.5 109.49L116.5 96.49A5 5 0 0 0 116.5 89.42L103.5 76.42A5 5 0 0 0 96.43 83.49L101.09 88.15A63.11 63.11 0 0 0 55.17 187.83 5 5 0 1 0 63.29 181.99 53.11 53.11 0 0 1 100.51 98.25Z" fill="#00d1cd" data-fill-palette-color="accent"></path><path d="M137.22 147H228.22A3 3 0 0 0 228.22 141H137.22A3 3 0 0 0 137.22 147" fill="#00d1cd" data-fill-palette-color="accent"></path><path d="M137.22 270H208.22A3 3 0 0 0 208.22 264H137.22A3 3 0 1 0 137.22 270" fill="#00d1cd" data-fill-palette-color="accent"></path><path d="M106.67 210.37H167.67A3 3 0 1 0 167.67 204.37H106.67A3 3 0 0 0 106.67 210.37" fill="#00d1cd" data-fill-palette-color="accent"></path><path d="M339.91 257.59A2 2 0 0 0 337.08 257.59L330.49 264.18 323.9 257.59A2 2 0 0 0 321.07 260.42L327.66 267.01 321.07 273.6A2 2 0 1 0 323.9 276.43L330.49 269.84 337.08 276.43A2 2 0 0 0 339.91 273.6L333.33 267 339.92 260.41A2 2 0 0 0 339.91 257.59" fill="#00d1cd" data-fill-palette-color="accent"></path><path d="M330.5 243.33A23.67 23.67 0 1 0 354.17 267 23.69 23.69 0 0 0 330.5 243.33M330.5 285.66A18.67 18.67 0 1 1 349.17 267 18.69 18.69 0 0 1 330.5 285.67Z" fill="#00d1cd" data-fill-palette-color="accent"></path></g></svg></g></svg></g></svg></g></svg></g><g></g></svg></g><defs></defs></svg><rect width="265.0939209655758" height="247.2" fill="none" stroke="none" visibility="hidden"></rect></g></svg></g></svg>